<?xml version="1.0" encoding="UTF-8"?>
<svg id="Layer_1" data-name="Layer 1" xmlns="http://www.w3.org/2000/svg" viewBox="0 0 505.14 180.93">
  <defs>
    <style>
      .cls-1 {
        letter-spacing: 0em;
      }

      .cls-2 {
        letter-spacing: 0em;
      }

      .cls-3 {
        fill: #d6ced7;
      }

      .cls-3, .cls-4 {
        stroke-width: 0px;
      }

      .cls-5 {
        fill: #aba2ba;
        font-family: AcuminConcept-Semibold, 'Acumin Variable Concept';
        font-size: 44.91px;
        font-variation-settings: 'wght' 600, 'wdth' 100, 'slnt' 0;
        font-weight: 600;
      }

      .cls-4 {
        fill: #fff;
      }

      .cls-6 {
        letter-spacing: -.01em;
      }

      .cls-7 {
        fill: #f1e5f0;
        stroke: #aba2ba;
        stroke-miterlimit: 10;
      }

      .cls-8 {
        letter-spacing: 0em;
      }
    </style>
  </defs>
  <ellipse class="cls-7" cx="252.57" cy="90.46" rx="252.07" ry="89.96"/>
  <g>
    <g>
      <path class="cls-4" d="M110.77,120.98c-1,0-1.71-.21-2.18-.65-.42-.39-.79-.93-1.1-1.61l-3.03-7.53h.74c2.72,0,5.46-.11,8.15-.33,2.69-.22,5.34-.56,7.88-1.02,2.54-.46,5.06-1.07,7.49-1.81,2.4-.73,4.45-1.71,6.11-2.92,1.76-1.26,3.06-2.71,3.88-4.31.82-1.6,1.23-3.7,1.23-6.22,0-1.17-.27-2.39-.82-3.63-.54-1.24-1.36-2.36-2.45-3.33-1.09-.98-2.43-1.8-3.97-2.43-1.54-.63-3.35-.94-5.38-.94-2.96,0-5.85.39-8.57,1.15-2.71.76-5.29,1.9-7.67,3.4-2.38,1.5-4.64,3.39-6.72,5.62-2.08,2.24-3.99,4.87-5.68,7.8l-.22.38-6.07-2.5c-.68-.29-1.15-.66-1.4-1.1-.24-.42-.37-.83-.37-1.23,0-.48.08-1.02.23-1.62.14-.55.3-1.1.48-1.63.74-2.55,1.42-5.04,2-7.39.6-2.4,1.21-4.9,1.84-7.52.57-2.49,1.16-5.3,1.75-8.34.55-2.81,1.01-5.25,1.39-7.31-2.27-.06-4.5-.15-6.63-.27-2.3-.12-4.44-.41-6.34-.85-1.06-.22-1.77-.67-2.1-1.35-.3-.61-.41-1.31-.35-2.08l.46-7.28.55.1c2.76.49,5.85.85,9.21,1.07,3.05.2,5.4.33,7.01.4.49-3.01.95-5.86,1.39-8.53.45-2.77.8-5.03,1.03-6.71l.07-.5,7.28,1.1c.84.15,1.43.5,1.76,1.02.31.49.46.97.46,1.44s-.08,1.01-.23,1.62c-.14.55-.27,1.13-.38,1.74-.36,1.49-.69,3.02-.99,4.58-.28,1.42-.56,2.84-.86,4.25,4.08-.07,8.49-.24,13.12-.5,4.86-.28,8.76-.61,11.58-.98,1.6-.19,2.89-.34,3.86-.47.66-.08,1.22-.13,1.66-.13.24,0,.44.01.61.04.65.08,1.18.4,1.51.93.31.48.48,1.19.55,2.15l.28,6.91-.45.06c-1.33.19-2.71.35-4.1.47-1.41.12-2.54.22-3.4.28-4.13.37-8.79.7-13.86.98-4.93.27-9.46.44-13.47.51-.56,2.62-1.26,5.98-2.1,10.07-.75,3.63-1.36,6.64-1.85,9.03,3.56-2.51,7.11-4.43,10.57-5.72,3.81-1.42,8.17-2.13,12.95-2.13,3.36,0,6.47.55,9.23,1.62,2.77,1.08,5.15,2.56,7.07,4.4,1.93,1.85,3.44,4.01,4.49,6.42,1.05,2.42,1.58,4.94,1.58,7.49,0,4.11-.89,7.84-2.63,11.08-1.75,3.24-4.23,5.88-7.38,7.85-2.37,1.51-5.03,2.74-7.92,3.65-2.87.91-5.61,1.59-8.13,2.03-2.53.44-4.97.75-7.25.94-2.28.19-4.11.28-5.44.28Z"/>
      <path class="cls-3" d="M103.06,38.53l6.77,1.03c.69.13,1.16.39,1.41.79.26.41.39.79.39,1.17,0,.44-.07.94-.21,1.5-.14.56-.27,1.15-.39,1.78-.34,1.43-.67,2.96-.99,4.58-.31,1.62-.64,3.24-.99,4.86,4.29-.06,8.88-.23,13.76-.51,4.89-.28,8.76-.61,11.62-.98,1.6-.19,2.89-.34,3.86-.47.65-.08,1.18-.12,1.6-.12.21,0,.39.01.55.03.51.06.9.29,1.16.7.26.41.41,1.04.47,1.92l.26,6.45c-1.32.19-2.67.34-4.07.47-1.4.12-2.53.22-3.39.28-4.17.37-8.79.7-13.85.98-5.06.28-9.68.45-13.85.51-.57,2.68-1.3,6.17-2.19,10.46-.89,4.3-1.59,7.73-2.1,10.28,3.89-2.87,7.72-5,11.49-6.4s8.03-2.1,12.78-2.1c3.32,0,6.33.53,9.05,1.59,2.72,1.06,5.02,2.49,6.9,4.3,1.89,1.81,3.34,3.89,4.37,6.26,1.03,2.37,1.54,4.8,1.54,7.29,0,4.05-.86,7.66-2.57,10.84-1.72,3.18-4.12,5.73-7.2,7.66-2.34,1.5-4.95,2.69-7.8,3.6-2.86.9-5.55,1.57-8.06,2.01-2.52.44-4.92.75-7.2.93-2.29.19-4.09.28-5.4.28-.86,0-1.47-.17-1.84-.51-.37-.34-.7-.83-.99-1.45l-2.74-6.82c2.74,0,5.47-.11,8.19-.33,2.72-.22,5.36-.56,7.93-1.03,2.57-.47,5.09-1.07,7.55-1.82,2.46-.75,4.54-1.74,6.26-2.99,1.83-1.31,3.17-2.8,4.03-4.49.86-1.68,1.29-3.83,1.29-6.45,0-1.25-.29-2.52-.86-3.83-.57-1.31-1.43-2.48-2.57-3.5-1.14-1.03-2.52-1.87-4.12-2.52-1.6-.65-3.46-.98-5.57-.98-3.03,0-5.93.39-8.7,1.17-2.77.78-5.38,1.93-7.8,3.46-2.43,1.53-4.7,3.43-6.82,5.7-2.12,2.28-4.03,4.91-5.75,7.9l-5.66-2.34c-.57-.25-.96-.55-1.16-.89-.2-.34-.3-.67-.3-.98,0-.44.07-.94.21-1.5.14-.56.3-1.09.47-1.59.74-2.55,1.41-5.03,2.01-7.43.6-2.4,1.21-4.9,1.84-7.52.57-2.49,1.16-5.28,1.76-8.36.6-3.08,1.1-5.71,1.5-7.9-2.52-.06-4.92-.16-7.2-.28-2.29-.12-4.37-.41-6.26-.84-.92-.19-1.5-.55-1.76-1.08-.26-.53-.36-1.14-.3-1.82l.43-6.73c2.8.5,5.89.86,9.26,1.07,3.37.22,5.86.36,7.46.42.51-3.18,1-6.17,1.46-8.97.46-2.8.8-5.05,1.03-6.73M102.2,37.39l-.14,1.01c-.23,1.67-.57,3.92-1.03,6.7-.42,2.54-.85,5.24-1.32,8.09-1.57-.07-3.77-.2-6.55-.38-3.34-.22-6.42-.57-9.15-1.06l-1.1-.2-.07,1.12-.43,6.73c-.07.84.06,1.63.4,2.32.4.82,1.22,1.36,2.46,1.62,1.91.44,4.08.73,6.41.86,1.96.11,3.99.19,6.06.25-.37,1.98-.8,4.24-1.29,6.74-.59,3.03-1.18,5.83-1.75,8.33-.66,2.75-1.26,5.21-1.84,7.5-.58,2.34-1.26,4.82-2.01,7.39-.17.5-.34,1.06-.48,1.62-.16.63-.24,1.22-.24,1.74,0,.49.15.99.44,1.49.31.53.84.96,1.62,1.3l5.68,2.34.81.34.44-.76c1.67-2.91,3.55-5.5,5.61-7.71,2.05-2.2,4.27-4.06,6.62-5.53,2.34-1.47,4.88-2.59,7.54-3.34,2.68-.75,5.51-1.13,8.43-1.13,1.97,0,3.72.31,5.2.91,1.49.61,2.77,1.4,3.83,2.34,1.03.93,1.81,1.99,2.33,3.16.51,1.18.77,2.33.77,3.43,0,2.44-.4,4.46-1.18,5.99-.78,1.53-2.03,2.92-3.72,4.13-1.62,1.18-3.63,2.13-5.97,2.85-2.41.73-4.91,1.34-7.43,1.79-2.52.46-5.16.8-7.83,1.02-2.67.22-5.4.32-8.11.32h-1.48l.55,1.37,2.74,6.82c.36.78.77,1.38,1.24,1.81.57.52,1.39.78,2.52.78,1.34,0,3.19-.1,5.48-.28,2.29-.19,4.75-.5,7.29-.94,2.54-.44,5.3-1.13,8.19-2.04,2.93-.93,5.63-2.17,8.04-3.71,3.21-2.01,5.76-4.71,7.55-8.03,1.79-3.31,2.69-7.12,2.69-11.31,0-2.62-.55-5.2-1.63-7.69-1.08-2.48-2.63-4.69-4.6-6.58-1.97-1.89-4.4-3.41-7.23-4.51-2.82-1.1-5.99-1.66-9.41-1.66-4.84,0-9.26.73-13.13,2.17-3.17,1.18-6.41,2.88-9.66,5.07.44-2.17.97-4.77,1.6-7.81.8-3.88,1.48-7.13,2.02-9.68,3.91-.07,8.31-.24,13.09-.5,5.06-.28,9.73-.61,13.88-.98.84-.06,1.98-.16,3.39-.28,1.4-.12,2.79-.28,4.13-.47l.9-.13-.04-.9-.26-6.45c-.07-1.08-.27-1.86-.63-2.41-.42-.66-1.07-1.06-1.88-1.16-.19-.02-.41-.04-.66-.04-.46,0-1.04.04-1.73.13-.97.12-2.25.28-3.85.47-2.83.37-6.71.7-11.56.98-4.39.25-8.58.42-12.47.49.25-1.22.5-2.44.73-3.65.3-1.56.63-3.09.98-4.54v-.03s.01-.03.01-.03c.11-.6.23-1.17.37-1.71.17-.65.25-1.22.25-1.74,0-.56-.18-1.14-.54-1.7-.41-.65-1.11-1.06-2.08-1.24l-6.81-1.03-1-.15h0Z"/>
    </g>
    <g>
      <path class="cls-4" d="M172.08,114.65c-1.45,0-3.12-.19-4.95-.57-1.85-.38-3.62-1.08-5.26-2.07-1.66-1-3.07-2.41-4.19-4.18-1.13-1.79-1.71-4.09-1.71-6.86,0-2.46.55-4.53,1.63-6.16,1.07-1.62,2.44-2.91,4.07-3.85,1.62-.93,3.36-1.58,5.17-1.93,1.8-.35,3.45-.52,4.9-.52,2.25,0,4.49.19,6.67.55l-.91-15.63c-.23-3.65-.34-7.26-.34-10.73v-11.41l5.49.21c.97.07,1.75.32,2.33.75.66.48.96,1.22.89,2.22l-.17,6.43c-.05,2-.06,4.02-.01,6.03,2.6-.01,5.25-.1,7.88-.28,2.79-.19,5.5-.41,8.05-.65.44-.06.94-.12,1.49-.19.29-.03.56-.05.82-.05s.51.02.73.05c.77.15,1.36.5,1.77,1.02.41.53.62,1.26.62,2.18v5.7l-.47.03c-3.69.25-7.29.46-10.69.61-2.47.11-4.99.17-7.5.17-.83,0-1.66,0-2.5-.02.16,2.56.3,5.11.44,7.64.14,2.6.29,5.21.45,7.83,1.45.48,3.09,1.06,4.88,1.72,1.93.72,3.93,1.59,5.96,2.59,2.01.99,3.84,1.95,5.43,2.87,1.57.9,3.01,1.77,4.27,2.58.42.26.84.6,1.24,1,.48.48.69,1.09.61,1.8,0,.44-.08.92-.24,1.38-.16.44-.39.9-.7,1.37l-2.85,4.66-.44-.32c-2.77-2.04-5.87-4.05-9.22-6-3.09-1.8-6.04-3.23-8.79-4.26-.09,2.24-.38,4.21-.85,5.88-.54,1.88-1.41,3.46-2.61,4.7-1.2,1.24-2.73,2.17-4.57,2.79-1.82.61-4.12.91-6.85.91ZM171,97.17c-1.43,0-2.6.12-3.47.36-.88.24-1.65.54-2.29.89-.59.32-.98.72-1.2,1.21-.23.53-.34,1.1-.34,1.72,0,.88.24,1.56.73,2.09.52.57,1.2,1.03,2.01,1.37.85.36,1.76.62,2.71.76.97.15,1.88.23,2.71.23,1.53,0,2.73-.18,3.58-.52.82-.34,1.42-.81,1.83-1.44.41-.65.67-1.47.78-2.45.1-.95.16-2.11.17-3.48-1.11-.26-2.23-.44-3.36-.55-1.27-.12-2.56-.19-3.85-.19Z"/>
      <path class="cls-3" d="M177.65,51.82l4.97.19c.86.06,1.54.28,2.06.65s.74.97.69,1.78c-.06,2.12-.12,4.27-.17,6.45-.06,2.18-.06,4.36,0,6.54,2.8,0,5.6-.09,8.4-.28,2.8-.19,5.49-.41,8.06-.65.46-.06.96-.12,1.5-.19.27-.03.53-.05.76-.05s.45.02.65.05c.63.12,1.11.41,1.46.84.34.44.51,1.06.51,1.87v5.23c-3.66.25-7.22.45-10.68.61-2.47.11-4.96.17-7.47.17-1.01,0-2.02,0-3.03-.03.17,2.74.33,5.47.47,8.18.14,2.71.3,5.43.47,8.18,1.54.5,3.27,1.11,5.19,1.82,1.91.72,3.89,1.57,5.92,2.57,2.03,1,3.83,1.95,5.4,2.85,1.57.9,2.99,1.76,4.25,2.57.4.25.79.56,1.16.94.37.37.53.84.47,1.4,0,.44-.07.86-.21,1.26-.14.41-.36.83-.64,1.26l-2.57,4.2c-2.8-2.06-5.89-4.06-9.26-6.03-3.37-1.96-6.55-3.47-9.52-4.53-.06,2.49-.34,4.64-.86,6.45-.51,1.81-1.34,3.3-2.49,4.49-1.15,1.18-2.6,2.07-4.37,2.66-1.77.59-4,.89-6.69.89-1.43,0-3.04-.19-4.85-.56-1.8-.37-3.5-1.04-5.1-2.01-1.6-.97-2.94-2.3-4.03-4.02-1.09-1.71-1.63-3.91-1.63-6.59,0-2.37.51-4.33,1.54-5.89,1.03-1.56,2.33-2.79,3.9-3.69,1.57-.9,3.24-1.53,5.02-1.87,1.77-.34,3.37-.51,4.8-.51,2.46,0,4.86.22,7.2.65l-.94-16.26c-.23-3.68-.34-7.24-.34-10.7v-10.89M171.86,106.3c1.6,0,2.86-.19,3.77-.56.91-.37,1.6-.92,2.06-1.63.46-.72.74-1.6.86-2.66.11-1.06.17-2.37.17-3.92-1.26-.31-2.53-.53-3.82-.65-1.29-.12-2.59-.19-3.9-.19-1.49,0-2.69.13-3.6.37-.92.25-1.72.56-2.4.94-.69.37-1.16.86-1.41,1.45-.26.59-.39,1.23-.39,1.92,0,1,.29,1.81.86,2.43.57.62,1.3,1.12,2.19,1.5.89.37,1.83.64,2.83.79,1,.16,1.93.23,2.79.23M176.65,50.78v11.93c0,3.47.12,7.09.34,10.76l.87,15c-2.01-.31-4.06-.46-6.13-.46-1.48,0-3.16.18-4.99.53-1.87.36-3.66,1.03-5.32,1.98-1.7.98-3.13,2.32-4.24,4.01-1.13,1.72-1.71,3.88-1.71,6.44,0,2.86.6,5.26,1.79,7.12,1.16,1.84,2.63,3.3,4.36,4.34,1.69,1.02,3.51,1.74,5.42,2.13,1.86.39,3.56.58,5.05.58,2.78,0,5.14-.32,7-.94,1.92-.64,3.52-1.62,4.78-2.92,1.25-1.3,2.17-2.95,2.73-4.91.44-1.53.72-3.31.84-5.3,2.54,1,5.25,2.33,8.07,3.98,3.32,1.93,6.41,3.94,9.17,5.97l.88.64.57-.93,2.57-4.2c.31-.47.56-.97.73-1.45.17-.5.27-1.02.27-1.55.07-.84-.19-1.58-.76-2.15-.43-.43-.88-.79-1.34-1.08-1.26-.81-2.7-1.68-4.28-2.59-1.6-.92-3.43-1.88-5.46-2.88-2.05-1-4.07-1.88-6.01-2.61-1.67-.62-3.2-1.17-4.58-1.62-.16-2.55-.3-5.06-.43-7.49-.13-2.36-.26-4.75-.41-7.11.66,0,1.31.01,1.97.01,2.51,0,5.04-.06,7.52-.17,3.4-.15,7-.36,10.7-.61l.93-.06v-6.17c0-1.03-.24-1.87-.73-2.49-.49-.63-1.18-1.03-2.05-1.2-.29-.05-.56-.07-.85-.07s-.57.02-.87.05c-.55.06-1.06.13-1.52.19-2.49.24-5.19.46-7.99.65-2.45.16-4.92.26-7.36.27-.03-1.83-.03-3.68.02-5.51.06-2.18.11-4.33.17-6.45.1-1.42-.54-2.21-1.1-2.61-.66-.48-1.53-.76-2.57-.84l-5.01-.19-1.04-.04h0ZM171.86,105.3c-.81,0-1.69-.07-2.63-.22-.91-.14-1.78-.39-2.6-.73-.75-.32-1.37-.74-1.84-1.25-.4-.44-.59-1.01-.59-1.75,0-.55.1-1.05.3-1.52.17-.38.49-.7.98-.97.61-.33,1.35-.62,2.19-.85.83-.22,1.95-.34,3.34-.34,1.27,0,2.55.06,3.8.18.97.09,1.95.25,2.91.45-.02,1.17-.07,2.19-.16,3.02-.1.9-.34,1.65-.71,2.23-.35.54-.87.95-1.59,1.25-.79.32-1.93.49-3.39.49h0Z"/>
    </g>
    <g>
      <path class="cls-4" d="M245.51,116.15c-3.83,0-7.39-.43-10.59-1.27-3.23-.85-6.04-2.25-8.37-4.15-2.33-1.91-4.16-4.4-5.42-7.38-1.26-2.97-1.9-6.63-1.9-10.86s.71-8.29,2.11-11.93c1.39-3.62,3.28-7.08,5.6-10.28,1.62-2.23,3.35-4.32,5.15-6.2,1.44-1.5,3.04-2.98,4.79-4.4-.53.04-1.04.07-1.55.1-1.03.06-2.15.14-3.35.25-1.73.17-3.48.28-5.22.34-1.69.06-3.38.08-5.03.08-.85,0-1.49-.26-1.9-.77-.38-.47-.61-1.06-.67-1.78l-.47-6.7.58.05c1.35.11,2.67.17,3.94.17h3.11c3.16,0,6.32-.1,9.4-.29,3.08-.19,6.39-.46,9.84-.79.51-.05,1.16-.15,1.95-.29.84-.14,1.59-.22,2.25-.22.93,0,1.57.28,1.9.83.27.45.43.97.5,1.54l.83,5.95-.33.16c-4.83,2.36-9.08,5.34-12.63,8.86-3.55,3.51-6.36,7.24-8.34,11.08-1.19,2.36-2.08,4.75-2.64,7.12-.57,2.37-.85,5.05-.85,7.95,0,2.38.39,4.45,1.17,6.15.77,1.69,1.9,3.09,3.38,4.15,1.5,1.07,3.31,1.89,5.37,2.43,2.08.54,4.48.82,7.14.82,3.76,0,6.95-.74,9.48-2.19,2.54-1.46,4.59-3.45,6.09-5.93,1.52-2.5,2.62-5.43,3.27-8.7.65-3.3.99-6.85.99-10.53s-.36-7.6-1.07-11.49c-.72-3.9-1.66-7.72-2.8-11.36l-.15-.49,5.08-1.48c1.32-.41,2.36-.6,3.17-.6.6,0,1.13.23,1.57.7.4.42.68.9.81,1.43.45,1.58.94,3.09,1.46,4.47.51,1.37,1.12,2.8,1.8,4.23,1.94,3.91,4.23,7.89,6.8,11.82,2.57,3.92,5.7,7.87,9.29,11.73l.36.39-5.26,4.27c-.91.75-1.72,1.12-2.48,1.12-.69-.07-1.23-.33-1.66-.78-.35-.37-.65-.7-.89-.99-1.92-2.54-3.67-5.11-5.19-7.67-1.06-1.77-2.06-3.66-3-5.63.08,1.11.14,2.2.17,3.27.06,2.03-.03,4.08-.26,6.09-.41,3.59-1.23,7.09-2.45,10.4-1.22,3.33-2.96,6.31-5.15,8.85-2.2,2.55-4.96,4.61-8.21,6.11-3.25,1.5-7.12,2.26-11.5,2.26ZM263.86,50.51c-.52-1.34-.99-2.54-1.42-3.58-.42-1.02-.84-2-1.27-2.89-.08-.2-.14-.37-.18-.54-.06-.25-.04-.49.06-.71.11-.31.43-.54.92-.64l2.1-.39.17.33c.53,1,1.04,2.08,1.52,3.18.48,1.1.91,2.12,1.3,3.07.1.29.15.48.17.6.04.21.02.44-.08.67-.02.13-.12.33-.28.5-.17.18-.43.3-.78.37l-2.1.41-.15-.39ZM270.26,49.48c-.46-1.28-.9-2.43-1.3-3.44-.39-1-.81-1.97-1.22-2.86-.06-.18-.1-.32-.15-.48-.07-.27-.06-.51.04-.72.06-.2.28-.53.86-.67l2.04-.4.17.34c.49.97.97,2.01,1.43,3.1.45,1.07.86,2.07,1.22,2.99.1.26.15.46.16.64,0,.17,0,.33-.03.49-.1.28-.2.46-.33.61-.16.18-.4.31-.74.39l-2,.43-.15-.41Z"/>
      <path class="cls-3" d="M270.26,41.46c.49.97.96,2,1.41,3.07.45,1.07.85,2.06,1.22,2.98.07.2.12.36.12.48,0,.12,0,.24-.02.37-.05.15-.13.27-.21.37-.09.1-.25.18-.48.23l-1.56.34c-.47-1.28-.9-2.44-1.3-3.46-.4-1.02-.81-1.98-1.24-2.89-.04-.11-.07-.25-.12-.4-.04-.15-.04-.28,0-.37.06-.2.24-.33.53-.4l1.64-.32M263.81,42.32c.53,1,1.03,2.05,1.5,3.15.48,1.1.91,2.12,1.3,3.06.07.23.12.4.15.51.02.11,0,.24-.05.39-.02.13-.08.24-.18.34-.09.1-.27.17-.52.22l-1.68.33c-.52-1.35-.99-2.54-1.42-3.59-.43-1.05-.85-2.02-1.28-2.92-.06-.15-.11-.29-.14-.43-.03-.14-.02-.27.03-.39.06-.17.25-.29.56-.35l1.73-.32M249.75,50.33c.75,0,1.24.2,1.47.59.23.39.37.84.43,1.34l.78,5.6c-4.9,2.4-9.16,5.38-12.76,8.95-3.6,3.57-6.42,7.31-8.43,11.21-1.21,2.4-2.11,4.81-2.68,7.23-.58,2.43-.87,5.12-.87,8.07,0,2.45.4,4.57,1.21,6.36.81,1.79,1.99,3.23,3.55,4.35,1.56,1.12,3.4,1.95,5.54,2.51,2.13.56,4.55.84,7.27.84,3.86,0,7.11-.75,9.73-2.26,2.62-1.5,4.71-3.54,6.27-6.11,1.56-2.56,2.67-5.52,3.33-8.86.66-3.35,1-6.89,1-10.62s-.36-7.65-1.08-11.58c-.72-3.93-1.66-7.74-2.81-11.42l4.59-1.34c1.27-.39,2.28-.58,3.03-.58.46,0,.87.18,1.21.54.35.36.58.77.69,1.21.46,1.62.95,3.12,1.47,4.52.52,1.39,1.12,2.82,1.82,4.27,1.96,3.96,4.24,7.92,6.83,11.88,2.6,3.96,5.71,7.89,9.34,11.79l-4.84,3.93c-.81.67-1.53,1-2.16,1-.52-.05-.95-.26-1.3-.63-.35-.36-.64-.68-.86-.96-1.9-2.51-3.62-5.05-5.15-7.61-1.53-2.56-2.93-5.32-4.2-8.28.23,2.12.37,4.18.43,6.19.06,2.01-.03,4.01-.26,6.02-.4,3.57-1.21,7-2.42,10.29-1.21,3.29-2.9,6.19-5.06,8.7-2.16,2.51-4.84,4.5-8.05,5.98-3.2,1.48-6.96,2.22-11.29,2.22-3.81,0-7.3-.42-10.47-1.25-3.17-.84-5.9-2.19-8.17-4.06-2.28-1.87-4.04-4.26-5.28-7.19-1.24-2.93-1.86-6.48-1.86-10.66s.69-8.15,2.08-11.75c1.38-3.6,3.23-6.98,5.54-10.16,1.61-2.23,3.31-4.28,5.1-6.15,1.79-1.87,3.81-3.67,6.06-5.39-1.1.11-2.16.2-3.2.25-1.04.06-2.16.14-3.37.25-1.73.17-3.46.28-5.19.33-1.73.06-3.4.08-5.02.08-.69,0-1.2-.19-1.51-.58-.32-.39-.51-.89-.56-1.51l-.43-6.11c1.38.11,2.71.17,3.98.17h3.11c3.17,0,6.31-.1,9.43-.29,3.11-.19,6.4-.46,9.86-.79.52-.05,1.18-.15,1.99-.29.81-.14,1.53-.21,2.16-.21M270.81,40.34l-.74.15-1.64.32c-.85.2-1.16.7-1.27,1.02-.09.22-.16.56-.04,1,.04.17.09.31.13.44l.02.06.03.06c.42.89.82,1.85,1.21,2.83.39.99.82,2.14,1.29,3.43l.3.82.85-.19,1.56-.34c.46-.11.79-.29,1.02-.55.17-.19.3-.42.4-.68l.03-.08.02-.09c.04-.2.05-.4.04-.6-.01-.23-.07-.48-.18-.78-.37-.95-.78-1.95-1.23-3.02-.46-1.09-.94-2.15-1.44-3.13l-.34-.67h0ZM264.36,41.2l-.73.14-1.73.32c-.83.16-1.17.6-1.31.96-.13.31-.16.66-.08,1,.04.19.11.39.19.59.43.92.86,1.89,1.28,2.91.41,1.02.88,2.18,1.41,3.57l.3.78.82-.16,1.68-.33c.46-.09.8-.26,1.04-.51.21-.22.35-.47.42-.75.1-.3.13-.6.07-.87-.03-.15-.08-.33-.18-.62v-.04s-.03-.04-.03-.04c-.39-.96-.83-2-1.3-3.08-.49-1.12-1-2.2-1.54-3.22l-.34-.65h0ZM249.75,49.33c-.68,0-1.47.08-2.33.22-.79.14-1.43.23-1.93.28-3.44.33-6.75.6-9.82.79-3.07.19-6.22.29-9.37.29h-3.11c-1.25,0-2.56-.06-3.9-.16l-1.16-.09.08,1.16.43,6.11c.08.83.34,1.52.79,2.07.35.43,1.04.95,2.29.95,1.65,0,3.35-.03,5.05-.08,1.74-.06,3.51-.17,5.25-.34,1.23-.11,2.33-.19,3.33-.25,0,0,.02,0,.03,0-1.31,1.13-2.53,2.28-3.66,3.46-1.81,1.89-3.56,4-5.19,6.25-2.34,3.23-4.25,6.72-5.66,10.39-1.42,3.69-2.14,7.77-2.14,12.11s.65,8.02,1.94,11.05c1.3,3.06,3.17,5.61,5.56,7.58,2.38,1.95,5.26,3.38,8.55,4.25,3.24.85,6.85,1.29,10.72,1.29,4.45,0,8.39-.78,11.71-2.31,3.32-1.53,6.14-3.63,8.38-6.24,2.23-2.59,4-5.62,5.24-9,1.23-3.35,2.07-6.89,2.48-10.52.23-2.05.32-4.12.27-6.16,0-.28-.02-.56-.03-.85.62,1.2,1.27,2.36,1.93,3.48,1.53,2.58,3.29,5.17,5.21,7.7.26.32.56.66.94,1.05.51.54,1.15.85,1.91.93h.05s.05,0,.05,0c.88,0,1.8-.4,2.8-1.23l4.84-3.92.83-.67-.73-.78c-3.58-3.84-6.68-7.76-9.24-11.66-2.56-3.91-4.84-7.87-6.77-11.77-.67-1.41-1.27-2.82-1.78-4.17-.51-1.37-1-2.86-1.45-4.44-.15-.59-.47-1.14-.93-1.63-.53-.56-1.2-.85-1.93-.85-.86,0-1.94.21-3.32.63l-4.57,1.33-.98.29.31.97c1.13,3.62,2.07,7.42,2.78,11.3.71,3.85,1.06,7.69,1.06,11.4s-.33,7.16-.98,10.43c-.64,3.22-1.72,6.09-3.2,8.54-1.46,2.41-3.45,4.34-5.91,5.76-2.46,1.41-5.56,2.13-9.23,2.13-2.62,0-4.97-.27-7.01-.8-2.01-.52-3.76-1.32-5.21-2.36-1.41-1.01-2.49-2.34-3.22-3.95-.74-1.64-1.12-3.64-1.12-5.94,0-2.87.28-5.5.84-7.84.55-2.33,1.43-4.69,2.6-7.02,1.96-3.78,4.73-7.47,8.24-10.95,3.51-3.47,7.71-6.42,12.49-8.76l.65-.32-.1-.72-.78-5.6c-.07-.62-.26-1.2-.56-1.71-.29-.49-.93-1.08-2.33-1.08h0Z"/>
    </g>
    <g>
      <path class="cls-4" d="M315.65,107.68c-.55,0-1.11-.05-1.67-.14-.69-.11-1.22-.41-1.59-.87-.34-.43-.6-1.03-.8-1.83l-1.54-6.72h.63c1.49,0,2.77-.02,3.81-.07,1.04-.05,2.04-.12,2.96-.21,1.11-.13,2.19-.25,3.22-.36,1.01-.11,2-.27,2.93-.49,2.19-.45,4.42-1.04,6.66-1.76,2.21-.71,4.28-1.67,6.16-2.83,1.87-1.16,3.48-2.58,4.8-4.22,1.3-1.62,2.15-3.64,2.51-6,.61-3.95-.1-7.14-2.13-9.48-2.05-2.37-5.53-3.97-10.36-4.78-2.34-.39-5.16-.59-8.38-.59h-.22c-3.31,0-6.47.11-9.4.32-2.7.23-5.99.54-9.77.92-.46.05-1.11.13-1.93.24-.55.08-1.01.11-1.38.11-.23,0-.43-.02-.6-.04-.64-.11-1.13-.38-1.44-.81-.29-.39-.48-.91-.58-1.58l-.95-7.21.53-.03c1.62-.1,3.15-.17,4.53-.2,1.35-.02,2.53-.08,3.51-.16,6.61-.29,11.95-.49,15.88-.58.48-.01.96-.02,1.45-.02,3.53,0,7.16.31,10.8.91,2.85.48,5.57,1.32,8.09,2.5,2.53,1.19,4.73,2.83,6.55,4.88,1.82,2.05,3.15,4.56,3.98,7.47.82,2.91.93,6.31.34,10.11-.55,3.57-1.8,6.68-3.7,9.23-1.89,2.53-4.15,4.69-6.7,6.4-2.55,1.71-5.32,3.09-8.25,4.1-2.89,1-5.74,1.79-8.46,2.36-1.63.36-3.14.66-4.46.87-1.35.22-2.78.4-4.24.53-.26.02-.52.03-.79.03Z"/>
      <path class="cls-3" d="M322.5,58.79c3.52,0,7.09.3,10.72.91,2.82.47,5.47,1.29,7.96,2.46s4.61,2.76,6.39,4.76c1.77,2,3.06,4.42,3.87,7.27.8,2.85.91,6.15.33,9.9-.54,3.51-1.75,6.51-3.61,9.01-1.86,2.5-4.06,4.59-6.58,6.29-2.52,1.7-5.23,3.04-8.14,4.04-2.91,1-5.7,1.78-8.4,2.34-1.62.36-3.1.65-4.43.87-1.34.22-2.74.39-4.21.53-.25.02-.49.03-.74.03-.52,0-1.05-.04-1.59-.13-.56-.09-.99-.32-1.28-.69-.29-.36-.53-.91-.7-1.63l-1.4-6.1h0c1.5,0,2.77-.02,3.82-.07,1.05-.05,2.05-.12,2.99-.21,1.12-.13,2.2-.25,3.23-.36,1.03-.11,2.03-.28,2.99-.5,2.21-.45,4.45-1.04,6.7-1.77,2.25-.73,4.34-1.69,6.27-2.88,1.92-1.19,3.57-2.64,4.93-4.34,1.36-1.7,2.24-3.78,2.62-6.24.64-4.12-.11-7.42-2.25-9.89-2.14-2.47-5.69-4.12-10.65-4.95-2.38-.4-5.2-.6-8.46-.6-.07,0-.14,0-.22,0-3.36,0-6.51.12-9.43.32-2.76.24-6.02.54-9.78.92-.47.05-1.12.13-1.95.24-.53.07-.97.11-1.32.11-.2,0-.37-.01-.52-.04-.51-.08-.88-.29-1.12-.61-.24-.32-.4-.78-.48-1.36l-.88-6.68c1.64-.11,3.14-.17,4.5-.2,1.36-.02,2.55-.08,3.54-.17,6.59-.29,11.87-.48,15.85-.58.48-.01.96-.02,1.44-.02M322.5,57.79c-.49,0-.97,0-1.46.02-3.94.09-9.28.29-15.87.58-1.01.09-2.18.14-3.52.17-1.39.03-2.92.09-4.55.2l-1.07.07.14,1.06.88,6.68c.11.77.33,1.37.67,1.83.39.53.99.87,1.76,1,.2.03.42.05.68.05.4,0,.87-.04,1.45-.12.82-.11,1.45-.19,1.92-.24,3.75-.38,7.03-.69,9.77-.92,2.9-.2,6.05-.31,9.35-.32h.21c3.19,0,5.98.2,8.3.58,4.71.78,8.09,2.34,10.06,4.61,1.95,2.26,2.61,5.23,2.01,9.08-.35,2.27-1.16,4.21-2.41,5.76-1.28,1.6-2.86,2.98-4.68,4.11-1.84,1.15-3.88,2.08-6.05,2.78-2.22.72-4.44,1.3-6.59,1.74-.93.21-1.9.37-2.9.48-1.03.11-2.11.23-3.23.36-.9.09-1.89.16-2.91.21-1.03.05-2.3.07-3.78.07h-1.26l.27,1.22,1.4,6.1c.22.89.51,1.55.9,2.03.45.56,1.09.91,1.9,1.05.59.1,1.18.15,1.75.15.27,0,.55-.01.82-.03,1.48-.14,2.92-.32,4.29-.54,1.33-.22,2.84-.51,4.49-.88,2.73-.57,5.59-1.37,8.51-2.37,2.97-1.02,5.79-2.42,8.37-4.15,2.6-1.75,4.9-3.94,6.82-6.52,1.95-2.62,3.23-5.8,3.8-9.45.6-3.87.48-7.35-.36-10.32-.84-2.98-2.22-5.56-4.08-7.66-1.86-2.09-4.12-3.77-6.71-5-2.55-1.2-5.32-2.06-8.22-2.54-3.66-.61-7.33-.92-10.88-.92h0Z"/>
    </g>
    <g>
      <path class="cls-4" d="M371.65,108.5c-.65,0-1.24-.09-1.75-.26-.58-.14-1.07-.48-1.41-1.01-.29-.46-.53-.99-.71-1.57l-2.63-7.79.63-.06c1.31-.13,2.57-.3,3.76-.51,1.22-.22,2.47-.42,3.74-.63,3.18-.61,6.46-1.49,9.75-2.62,3.27-1.13,6.54-2.71,9.74-4.7,4.74-3.01,8.83-6.52,12.18-10.43,3.35-3.93,6.58-8.85,9.6-14.62.77-1.45,1.5-2.89,2.18-4.3.67-1.4,1.34-2.81,2-4.25.65-1.42,1.31-2.96,1.98-4.58.67-1.63,1.41-3.43,2.24-5.4l.23-.54,6.49,3.96c.55.34,1.04.74,1.46,1.18.46.5.71,1.08.72,1.72.04.73-.21,1.66-.78,2.83-1.29,2.8-2.53,5.36-3.68,7.6-1.15,2.25-2.26,4.39-3.34,6.43-3.54,6.75-7.57,12.75-12,17.86-4.43,5.11-9.5,9.36-15.08,12.62-3.42,2.05-6.88,3.74-10.27,5.04-3.38,1.29-7.22,2.46-11.43,3.49-.88.24-1.81.41-2.76.51-.29.03-.57.04-.84.04ZM373.37,77.12c-1.36-4.38-3.07-8.95-5.08-13.59-2.01-4.62-3.75-8.58-5.19-11.77-.12-.26-.23-.55-.32-.85-.1-.33-.15-.7-.15-1.13,0-.57.24-1.37,1.39-1.94l6.43-3.1.23.4c.69,1.19,1.51,2.76,2.5,4.8.96,1.97,1.96,4.15,2.97,6.47,1.01,2.32,1.95,4.58,2.79,6.69.86,2.15,1.56,4.03,2.07,5.59.17.5.33,1.03.48,1.57.15.58.23,1.14.23,1.67,0,.81-.21,1.46-.63,1.96-.39.46-.96.86-1.72,1.21l-5.83,2.56-.17-.54ZM395.44,70.11c-1.58-4.33-3.46-8.83-5.61-13.37-2.14-4.53-4.01-8.38-5.55-11.44-.14-.33-.26-.62-.38-.89-.15-.33-.23-.71-.25-1.16-.03-.76.42-1.4,1.32-1.9l6.39-3.47.25.4c.74,1.17,1.62,2.75,2.63,4.7,1.01,1.94,2.05,4.04,3.1,6.24,1.03,2.17,2.05,4.38,3.03,6.57.97,2.19,1.75,4.07,2.31,5.59.19.49.38,1.02.58,1.57.21.6.32,1.18.34,1.72.03.74-.18,1.39-.61,1.94-.4.51-.98.96-1.71,1.33l-5.65,2.7-.19-.52Z"/>
      <path class="cls-3" d="M391.19,38.53c.73,1.15,1.6,2.71,2.61,4.66,1.01,1.95,2.05,4.03,3.1,6.23,1.05,2.2,2.06,4.39,3.02,6.56.96,2.17,1.73,4.03,2.3,5.56.19.49.38,1.01.57,1.57.19.55.3,1.08.31,1.58.02.62-.15,1.16-.5,1.61-.36.45-.87.85-1.55,1.19l-5.15,2.46c-1.58-4.36-3.46-8.83-5.63-13.41-2.17-4.58-4.02-8.4-5.56-11.45-.13-.31-.25-.6-.37-.87-.13-.28-.19-.6-.21-.97-.02-.56.34-1.04,1.06-1.45l5.98-3.25M370.25,45.39c.69,1.18,1.51,2.77,2.49,4.77.97,1.99,1.96,4.14,2.96,6.45,1,2.3,1.93,4.53,2.79,6.68.86,2.15,1.54,4,2.06,5.56.17.5.33,1.01.47,1.54.14.53.21,1.04.21,1.54,0,.69-.17,1.23-.51,1.64-.34.41-.86.76-1.54,1.08l-5.32,2.34c-1.37-4.42-3.07-8.97-5.1-13.64-2.03-4.67-3.76-8.6-5.19-11.78-.11-.25-.21-.51-.3-.79-.09-.28-.13-.61-.13-.98,0-.62.37-1.12,1.11-1.5l6-2.9M423.39,45.94l5.99,3.66c.52.32.97.68,1.35,1.1.38.41.58.87.59,1.39.04.65-.2,1.52-.73,2.6-1.3,2.82-2.52,5.35-3.67,7.59-1.15,2.25-2.26,4.39-3.34,6.43-3.54,6.75-7.51,12.67-11.93,17.76-4.42,5.1-9.4,9.27-14.95,12.52-3.42,2.05-6.82,3.71-10.2,5-3.38,1.29-7.17,2.44-11.37,3.47-.87.24-1.77.4-2.7.5-.27.03-.54.04-.79.04-.6,0-1.13-.08-1.59-.24-.5-.12-.88-.39-1.15-.81-.26-.42-.48-.9-.66-1.45l-2.43-7.21c1.31-.13,2.58-.3,3.8-.52,1.22-.22,2.46-.42,3.74-.63,3.24-.62,6.51-1.5,9.83-2.64s6.6-2.73,9.84-4.75c4.81-3.05,8.9-6.56,12.29-10.53,3.39-3.97,6.61-8.88,9.66-14.72.78-1.47,1.51-2.91,2.19-4.31.68-1.4,1.34-2.82,2-4.26.66-1.44,1.32-2.97,1.98-4.6.67-1.63,1.41-3.43,2.24-5.4M391.54,37.2l-.82.45-5.98,3.25c-1.36.75-1.61,1.7-1.59,2.36.02.51.12.96.3,1.35.12.26.24.54.36.84v.03s.03.03.03.03c1.54,3.07,3.41,6.91,5.55,11.43,2.14,4.53,4.02,9.01,5.59,13.33l.38,1.04.99-.48,5.15-2.46c.82-.41,1.45-.9,1.9-1.47.51-.64.75-1.4.72-2.27-.02-.59-.14-1.22-.37-1.87-.2-.57-.39-1.1-.58-1.6-.57-1.52-1.35-3.42-2.32-5.61-.98-2.19-2-4.41-3.04-6.58-1.06-2.21-2.1-4.31-3.11-6.26-1.02-1.96-1.91-3.55-2.65-4.73l-.5-.79h0ZM370.65,44.08l-.84.4-6,2.9c-1.39.7-1.68,1.69-1.68,2.4,0,.48.06.9.17,1.28.1.32.22.63.35.92,1.43,3.18,3.17,7.14,5.18,11.75,2.01,4.63,3.71,9.18,5.06,13.54l.33,1.07,1.03-.45,5.32-2.34c.84-.38,1.46-.82,1.91-1.35.5-.59.75-1.35.75-2.28,0-.58-.08-1.18-.25-1.8-.15-.57-.32-1.11-.49-1.61-.51-1.56-1.21-3.45-2.07-5.6-.85-2.13-1.79-4.39-2.8-6.71-1.01-2.32-2.01-4.5-2.98-6.49-1-2.04-1.82-3.62-2.52-4.83l-.46-.8h0ZM422.92,44.48l-.45,1.07c-.83,1.98-1.58,3.78-2.25,5.41-.66,1.61-1.32,3.15-1.97,4.56-.66,1.44-1.33,2.86-1.99,4.24-.67,1.39-1.4,2.83-2.17,4.28-3,5.75-6.21,10.64-9.54,14.54-3.31,3.88-7.37,7.35-12.07,10.34-3.16,1.97-6.4,3.54-9.63,4.65-3.26,1.12-6.52,2-9.69,2.61-1.25.2-2.5.41-3.72.62-1.18.21-2.43.38-3.72.5l-1.25.12.4,1.19,2.43,7.21c.19.61.45,1.18.76,1.67.4.62.99,1.05,1.71,1.23.55.18,1.18.27,1.87.27.28,0,.58-.02.89-.05.98-.1,1.94-.28,2.86-.52,4.2-1.03,8.07-2.21,11.46-3.5,3.42-1.31,6.91-3.01,10.36-5.08,5.62-3.29,10.73-7.57,15.2-12.72,4.45-5.13,8.51-11.17,12.06-17.95,1.11-2.11,2.24-4.27,3.34-6.44,1.15-2.25,2.39-4.81,3.69-7.63.6-1.24.87-2.25.82-3.08-.01-.72-.3-1.41-.85-2.01-.45-.48-.97-.91-1.56-1.27l-5.99-3.66-.99-.61h0Z"/>
    </g>
  </g>
  <text class="cls-5" transform="translate(156.47 165.19) scale(1.22 1)"><tspan class="cls-6" x="0" y="0">C</tspan><tspan class="cls-2" x="31.08" y="0">ho</tspan><tspan class="cls-8" x="82.91" y="0">b</tspan><tspan class="cls-1" x="109.5" y="0">i</tspan><tspan x="121.27" y="0">ts</tspan></text>
</svg>